inDegrees=no
num_controls=7
num_derivatives=13
num_iterations=98
num_multipliers=7
num_parameters=0
num_slacks=7
num_states=26
objective=0.445593
objective_accelerations=0.057294
objective_balance=0.003594
objective_effort=0.023078
objective_height=0.356154
objective_ligament=0.005472
solver_duration=1444.501602
status=Solve_Succeeded
success=true
DataType=double
version=3
OpenSimVersion=4.5
endheader
time	/jointset/ground_pelvis/pelvis_tilt/value	/jointset/ground_pelvis/pelvis_tx/value	/jointset/ground_pelvis/pelvis_ty/value	/jointset/hip_l/hip_flexion_l/value	/jointset/hip_l/hip_adduction_l/value	/jointset/hip_l/hip_rotation_l/value	/jointset/back/lumbar_extension/value	/jointset/patellofemoral_l/patellar_flexion_l/value	/jointset/knee_l/knee_flexion_l/value	/jointset/knee_l/knee_adduction_l/value	/jointset/knee_l/knee_rotation_l/value	/jointset/ankle_l/ankle_angle_l/value	/jointset/subtalar_l/subtalar_angle_l/value	/jointset/ground_pelvis/pelvis_tilt/speed	/jointset/ground_pelvis/pelvis_tx/speed	/jointset/ground_pelvis/pelvis_ty/speed	/jointset/hip_l/hip_flexion_l/speed	/jointset/hip_l/hip_adduction_l/speed	/jointset/hip_l/hip_rotation_l/speed	/jointset/back/lumbar_extension/speed	/jointset/patellofemoral_l/patellar_flexion_l/speed	/jointset/knee_l/knee_flexion_l/speed	/jointset/knee_l/knee_adduction_l/speed	/jointset/knee_l/knee_rotation_l/speed	/jointset/ankle_l/ankle_angle_l/speed	/jointset/subtalar_l/subtalar_angle_l/speed	/forceset/tau_hip_flexion_l	/forceset/tau_hip_adduction_l	/forceset/tau_hip_rotation_l	/forceset/tau_knee_flexion_l	/forceset/tau_ankle_angle_l	/forceset/tau_subtalar_angle_l	/forceset/tau_lumbar_extension	lambda_cid13_p0	lambda_cid13_p1	lambda_cid13_p2	lambda_cid13_p3	lambda_cid13_p4	lambda_cid13_p5	lambda_cid14_p0	/jointset/ground_pelvis/pelvis_tilt/accel	/jointset/ground_pelvis/pelvis_tx/accel	/jointset/ground_pelvis/pelvis_ty/accel	/jointset/hip_l/hip_flexion_l/accel	/jointset/hip_l/hip_adduction_l/accel	/jointset/hip_l/hip_rotation_l/accel	/jointset/back/lumbar_extension/accel	/jointset/patellofemoral_l/patellar_flexion_l/accel	/jointset/knee_l/knee_flexion_l/accel	/jointset/knee_l/knee_adduction_l/accel	/jointset/knee_l/knee_rotation_l/accel	/jointset/ankle_l/ankle_angle_l/accel	/jointset/subtalar_l/subtalar_angle_l/accel	gamma_cid13_p0	gamma_cid13_p1	gamma_cid13_p2	gamma_cid13_p3	gamma_cid13_p4	gamma_cid13_p5	gamma_cid14_p0
0	-0.03953207391485734	0.06891673938949114	0.89595111228279	0.1955287580552426	-0.3220041513668528	-0.4834483691504151	-0.1379045077516729	0.07015288079084871	0.07015288079084844	-0.1745327141292144	-0.1179117716517439	-0.06701059314715049	0.003822983756518319	0	0	0	0	0	0	0	0	0	0	0	0	0	0.109105051143071	-0.0982210557237906	-0.03096867385977149	-0.2394680216898465	0.2015739685087394	-0.01930751484397855	-0.0533404212833188	28.89078737594373	0.2402331265164736	3.151254680490766	-2.206151189634113	-515.377878502037	-77.73743833332225	-39.91683961333319	-4.536126710992856	-1.823556585275175	-0.9792705743315175	12.56264125800812	-2.137667381326044	3.339668606058551	-2.824040122227713	10.16198023316695	10.1619802331662	0.6022521197906776	-0.8206871651806557	2.30753455682644	-1.0898434136902	-3.370744527425106e-08	1.03327746501875e-07	1.331401102667138e-07	1.326602058225263e-08	-2.817612944013239e-08	-5.202305635124566e-08	-1.011354655454083e-08
0.01	-0.03974853046957884	0.06882669107892425	0.8959035653675722	0.1961365012158956	-0.3221093325510775	-0.4832807105330627	-0.1380515661983581	0.07064656751952583	0.07064656751952199	-0.1745058815381869	-0.1179467330031485	-0.06690003260505706	0.003767694035255769	-0.04307621311720675	-0.01793861646992514	-0.009478176621408709	0.1210123136498327	-0.02092444927994204	0.03339405772966796	-0.02915312894998548	0.09830361777934329	0.09830361777934622	0.005370083141276722	-0.006952402242273307	0.02200836414196338	-0.0109930711452785	0.1040441377014486	-0.09889915830854538	-0.02992179423399412	-0.232659348983169	0.1909670846345035	-0.01400764761058009	-0.04912410975433615	25.65563692265973	-1.478390897367458	3.406223528190498	-0.9185989575708208	-516.2043818645733	-81.39526837322714	-39.92686188966931	-4.161115043045898	-1.768354678143478	-0.92741587795789	11.79006697703648	-2.053095543487633	3.318608471273166	-2.922165223307956	9.599495379655066	9.599495379655844	0.5049542914361373	-0.62652190294641	2.131926385504364	-1.094339554380569	-7.028837173827651e-08	1.427770057468014e-07	2.021813636966093e-07	4.787026056063712e-08	-2.409896562656142e-07	-9.060465285165258e-08	-1.443240069354694e-08
0.02	-0.04038929844166558	0.06855938850359956	0.8957621717517577	0.1979382756247607	-0.3224204105965341	-0.4827832445154449	-0.1384823991229283	0.07211027899186122	0.07211027899186105	-0.1744252345396761	-0.1180500194068205	-0.06657250061301943	0.003604413484653657	-0.08486228347286474	-0.03545085295155767	-0.01876934011933325	0.2388062496422872	-0.04117937224626018	0.06596148005342503	-0.05675489557692865	0.1940049487321684	0.1940049487321733	0.010762881488151	-0.01366501045237681	0.04339428998884964	-0.02159816586791357	0.09898322425984717	-0.09957726089329358	-0.02887491460818445	-0.2258506762764826	0.1803602007602753	-0.008707780377170635	-0.04490779822534517	22.48322036098007	-3.209247462987099	3.664569690010099	0.2123838994746955	-516.1132823225782	-84.89171657941117	-39.95636519310958	-4.2780981586831	-1.73828058761666	-0.9418679496346893	11.91896572653248	-2.003762118601307	3.174341524876373	-2.513767657619246	9.641522867863319	9.641522867862374	0.6067951609100906	-0.7727283587466993	2.183046897810996	-1.012248129161572	-1.068692982023019e-07	1.822262649917279e-07	2.712226171265048e-07	8.247450053902161e-08	-4.53803183091096e-07	-1.291862493520595e-07	-1.875125483255306e-08
0.03	-0.04144229806705244	0.06811942258135127	0.8955284995307204	0.2009027979366663	-0.3229306314330848	-0.4819643897796599	-0.1391809751388896	0.07451854912075584	0.07451854912075544	-0.1742904592344358	-0.1182195206913005	-0.06603365257014052	0.00333738004494936	-0.1255404218285508	-0.05243574399060232	-0.02795506288920213	0.3535404386983229	-0.06074847864698516	0.09767522924908938	-0.08271639851187269	0.2872066721043222	0.2872066721043208	0.01617432718706581	-0.02018265243270387	0.06430489795262603	-0.03172223005702009	0.09490877765406604	-0.09672903785817975	-0.02826073257270567	-0.2224964766947238	0.1769063716915709	-0.008260767185115042	-0.04143904400673402	21.42751644492774	-3.27269152333223	3.736538996295225	0.2227417895057709	-516.0544211997532	-84.40078080379295	-40.00415803885985	-3.933101271657406	-1.662588601244364	-0.9055098813166328	11.16695942175165	-1.916085659484412	3.149720991775125	-2.600755245898732	9.093140098215546	9.093140098215294	0.5057030227302911	-0.5833605437079271	2.034503005642355	-0.9996009458142056	-1.369142322820393e-07	1.975741218057521e-07	3.270976681544132e-07	1.101780991501006e-07	-6.232234518911612e-07	-1.65631017748368e-07	-2.351231326432703e-08
